# xmcd
#
# Track frame offsets:
#	150
#	19293
#	36356
#	55173
#	77649
#	91917
#	111988
#	131383
#	150200
#
# Disc length: 2299 seconds
#
# Revision: 0
# Processed by: cddbd v1.5.2PL0 Copyright (c) Steve Scherf et al.
# Submitted via: EZCDAudioConverter 8.0.2.1
#
DISCID=6508f909
DTITLE=Bằng Cường - Vol 21. Vì Anh Vì Em
DYEAR=2012
DGENRE=World Pop
TTITLE0=Bằng Cường - Thật khó để quên
TTITLE1=Bằng Cường - Vì Anh Vì Em
TTITLE2=Bằng Cường - Người ta thường nói
TTITLE3=Bằng Cường - Không ai tuyệt vời như em
TTITLE4=Bằng Cường - Yêu trong kỷ niệm
TTITLE5=Bằng Cường - Cô đơn
TTITLE6=Soundtrack - Thật khó để quên
TTITLE7=Soundtrack - Người ta thường nói
TTITLE8=Soundtrack - Không ai tuyệt vời như em
EXTD=
EXTT0=
EXTT1=
EXTT2=
EXTT3=
EXTT4=
EXTT5=
EXTT6=
EXTT7=
EXTT8=
PLAYORDER=
